<svg width="2070" height="1720" viewBox="0 0 2070 1720" fill="none" xmlns="http://www.w3.org/2000/svg">
<path d="M1846.21 208.582L1846.25 208.61L1846.28 208.638C2064.66 406.424 2064.38 710.962 1846.59 907.299L1846.58 907.307L1035.03 1639.2L223.475 907.307L223.465 907.299C5.6355 710.933 5.42293 406.395 223.361 209.012L223.407 208.971L223.452 208.929C274.892 162.148 336.412 124.712 404.612 99.047C472.806 73.384 546.138 60.0733 620.341 60C677.363 60.0112 739.689 90.1266 807.415 139.739C851.423 171.977 890.906 206.88 929.853 241.308C952.072 260.949 974.116 280.436 996.726 299.186L1035.02 330.942L1073.32 299.191C1095.96 280.424 1118.02 260.921 1140.26 241.264C1179.19 206.857 1218.65 171.978 1262.64 139.752C1330.37 90.137 1392.7 60.0162 1449.72 60C1523.84 60.0546 1597.08 73.3239 1665.21 98.9266C1733.34 124.531 1794.8 161.889 1846.21 208.582Z" fill="#4E4F4E" stroke="white" stroke-width="120"/>
</svg>

