<svg width="800" height="800" viewBox="0 0 800 800" fill="none" xmlns="http://www.w3.org/2000/svg">
<g clip-path="url(#clip0_205_2)">
<path d="M800 0H0V800H800V0Z" fill="white"/>
<path fill-rule="evenodd" clip-rule="evenodd" d="M66.667 400C66.667 215.905 215.905 66.6665 400 66.6665C584.094 66.6665 733.334 215.905 733.334 400C733.334 584.093 584.094 733.333 400 733.333C215.905 733.333 66.667 584.093 66.667 400ZM300 383.333C300 337.31 337.31 300 383.334 300C429.357 300 466.667 337.31 466.667 383.333C466.667 429.356 429.357 466.666 383.334 466.666C337.31 466.666 300 429.356 300 383.333ZM383.334 233.333C300.491 233.333 233.334 300.49 233.334 383.333C233.334 466.176 300.491 533.333 383.334 533.333C412.684 533.333 440.067 524.903 463.19 510.333L509.764 556.903C522.78 569.92 543.887 569.92 556.904 556.903C569.92 543.886 569.92 522.78 556.904 509.763L510.334 463.19C524.904 440.067 533.334 412.683 533.334 383.333C533.334 300.49 466.177 233.333 383.334 233.333Z" fill="#F04C5B"/>
</g>
<defs>
<clipPath id="clip0_205_2">
<rect width="800" height="800" fill="white"/>
</clipPath>
</defs>
</svg>
